<svg xmlns="http://www.w3.org/2000/svg" viewBox="-260 352 90 112.5" height="120" fill="#8A94A7"><path d="M-235.4 402.2c-5 0-9 4-9 9s4 9 9 9 9-4 9-9-4-9-9-9zm13.1 23.6c-1.5-1.3-3.8-3.3-7.5-4.4-5.9-1.7-10.8.3-12.4 1h-.1c-1.9.7-5 2-7.4 5.2-.7 1.1-1.4 2.4-1.5 2.6-.3.9-.6 1.6-.6 2.3 0 .6 0 1.2.2 1.7v.1c.1.3.2.6.5.8.2.1.4.3.6.4l.3.2c0 .1.1.1 8 .1h21.5c.5-.1 1.3-.4 1.8-1 .8-.8.8-1.9.8-2.3 0-2.5-2.7-5.3-4.2-6.7zm26.9-5.6c5 0 9-4 9-9s-4-9-9-9-9 4-9 9 4 9 9 9zm13.1 5.6c-1.5-1.3-3.8-3.3-7.5-4.4-5.9-1.7-10.8.3-12.4 1h-.1c-1.9.7-5 2-7.4 5.2-.8 1.2-1.5 2.6-1.5 2.6-.3.9-.6 1.6-.6 2.3 0 .6 0 1.2.2 1.7v.1c.1.3.2.6.5.8.2.1.4.3.6.4l.3.2c.1.1.1.1 8 .1h21.5c.5-.1 1.3-.4 1.8-1 .8-.8.8-1.9.8-2.3 0-2.5-2.7-5.3-4.2-6.7zM-210 390c.8.5 1.6.8 2.4.9 2.2.5 4.5.1 6.4-1.1 1.6-1 2.8-2.6 3.4-4.3.1 0 .2 0 .3.1 4.5 1 9.1-1.9 10.1-6.5 1-4.5-1.9-9.1-6.4-10.1-.5-.2-1-.2-1.4-.2-.9-2.9-3.3-5.1-6.3-5.7-.8-.2-1.6-.3-2.3-.2-1-2.6-3.2-4.5-6-5.2-.3-.1-1-.3-1.3-.3-3.6-.8-7.2.9-9 3.9-.8-.5-1.6-.8-2.4-.9-2.2-.5-4.5-.1-6.4 1.1-1.6 1-2.8 2.6-3.4 4.3-.1 0-.2 0-.3-.1-4.5-1-9.1 1.9-10.1 6.5-1 4.5 1.9 9 6.4 10.1.5.1.9.2 1.4.2.9 2.9 3.3 5.1 6.3 5.7.8.2 1.6.3 2.3.2 1 2.6 3.2 4.5 6 5.2.3.1 1 .3 1.3.3.6.1 1.2.2 1.8.2 2.9 0 5.7-1.5 7.2-4.1zm-8.6 2h-.2c-.2 0-.7-.1-.8-.2l-.2-.1c-2.4-.5-4.2-2.3-4.8-4.6l-.2-.9-.9.2c-.6.1-1.4.1-2.4-.1-2.5-.5-4.4-2.4-4.9-4.9l-.2-.8h-.8c-.5 0-1.1 0-1.6-.1h-.1c-3.5-.8-5.7-4.2-4.9-7.7.8-3.5 4.2-5.7 7.7-4.9.4.1.7.2 1 .3l1.4.7v-1.6c.4-1.6 1.4-3 2.8-4 1.5-.9 3.2-1.3 4.9-.9.9.2 1.7.6 2.6 1.2l1 .8.5-1.2c1.2-2.9 4.3-4.5 7.4-3.8h.2c.2 0 .7.1.8.2l.2.1c2.4.5 4.2 2.3 4.8 4.6l.2.9.9-.2c.6-.1 1.4-.1 2.4.1 2.5.5 4.4 2.4 4.9 4.9l.2.8h.8c.5 0 1.1 0 1.7.2 3.5.8 5.7 4.2 4.9 7.7-.8 3.5-4.2 5.7-7.7 4.9-.4-.1-.7-.2-1-.3l-1.4-.7v1.6c-.4 1.6-1.4 3-2.8 4-1.5.9-3.2 1.3-4.9.9-.9-.2-1.7-.6-2.6-1.2l-1-.8-.5 1.2c-1.3 2.8-4.3 4.4-7.4 3.7zm-.7 5.1c0-2-1.6-3.6-3.6-3.6s-3.6 1.6-3.6 3.6 1.6 3.6 3.6 3.6c2.1 0 3.6-1.5 3.6-3.6zm-5.2 0c0-.9.7-1.6 1.6-1.6s1.6.7 1.6 1.6c0 .9-.7 1.6-1.6 1.6-.8 0-1.6-.7-1.6-1.6zm-4.5 5.3c0 1.2 1.1 2.3 2.3 2.3 1.2 0 2.3-1.1 2.3-2.3s-1.1-2.3-2.3-2.3c-1.2 0-2.3 1.1-2.3 2.3zm2.6 0c0 .1-.2.3-.3.3-.1 0-.3-.2-.3-.3s.2-.3.3-.3c.2 0 .3.2.3.3zm22.8-5.1c.1-1.9-1.4-3.6-3.3-3.8-2-.1-3.6 1.4-3.8 3.3-.1.9.1 1.8.7 2.5.6.8 1.6 1.3 2.6 1.3h.2c2 0 3.5-1.4 3.6-3.3zm-3.6 1.3c-.5 0-.9-.2-1.2-.6-.2-.2-.3-.5-.3-1 .1-.8.7-1.5 1.5-1.5h.1c.9.1 1.5.8 1.5 1.6 0 .9-.8 1.6-1.6 1.5zm3.3 6.2h.2c1.3 0 2.3-1 2.3-2.2 0-1.3-1-2.3-2.2-2.3-1.3 0-2.3 1-2.3 2.2-.1 1.1.9 2.1 2 2.3zm.2-2.5c.1 0 .2.2.2.3 0 .1-.1.2-.2.2-.1-.1-.3-.2-.3-.3 0-.1.2-.2.3-.2z"/></svg>