<svg xmlns="http://www.w3.org/2000/svg" viewBox="0 -10 66 102.5" fill="#8A94A7" height="120"><path d="M62.1 50.2c-.9-.3-1.8-.4-2.9-.3V34h3.5c.6 0 1-.4 1-1 0-.3-.1-.6-.3-.7l-3.3-4.4V17.4c0-.3-.1-.5-.3-.7-.2-.2-.4-.3-.7-.3h-5.8c-.6 0-1 .4-1 1v3.1L49 17.4c0-.4.1-.9.1-1.4.2-7.2-5.7-13-12.9-13-1.3 0-2.6.2-3.8.6C29.1-.3 23.2-.6 19.6 3c-2.3 2.3-3.1 5.7-2.1 8.8L4.6 24.7c-.2.2-.3.4-.3.7l-.1 4.5c0 .6.4 1 1 1l4.5-.1c.4 0 .8-.3.9-.7l.9-3 2.4-.3c.4-.1.7-.4.8-.8l.5-2 1.8-.3c.4-.1.7-.4.8-.8l.5-2 1.9-.4c.2 0 .4-.1.5-.3l2.5-2.5c.5 4 2.8 7.6 6.2 9.6l-5 5c-.3.3-.4.7-.2 1.1.2.4.5.6.9.6h3.5v7.1c-3.2-1.2-7.1-.2-10.3 1.1l-.1-.5c-.1-.5-.6-.9-1.1-.9l-15 1.7c-.6.1-.9.6-.9 1.1l2.3 19.1c.1.5.5.9 1 .9h.1l15.1-1.8c.6-.1.9-.6.9-1.1l-.2-1.3c6.4 1.4 14.7 4.7 14.8 4.7 5 2.2 10.5 1.6 15.5-.6 3.6-1.6 9.9-3.7 12.8-6.4 2.2-2 1.5-6-1.4-6.9zm-23.9-3.8v-6.7h11.5v12.4l-.5.2c-.8-3.3-7-4.1-11-5.9zm-16-30.7l-2.8 2.8-2.2.5c-.4.1-.7.4-.8.7l-.5 2-1.8.3c-.4.1-.7.4-.8.7l-.5 2-2.3.3c-.4 0-.7.3-.8.7l-.8 3-2.7.1.1-3 13-13c.3-.3.4-.7.2-1.1-1-2.5-.4-5.4 1.5-7.3 2.5-2.5 6.6-2.6 9.4-.1-.5.2-.9.5-1.4.8-1.5-1-3.5-.9-4.8.4-1.5 1.5-1.5 3.8 0 5.3s3.9 1.5 5.3 0c1.1-1.1 1.4-2.7.8-4.2.4-.3.9-.5 1.3-.7 1.5 2.6 1.1 6-1 8.1-2 2-4.9 2.4-7.3 1.5-.4-.1-.8 0-1.1.2zM28.1 7c.7.7.7 1.8 0 2.5s-1.8.7-2.5 0-.7-1.8 0-2.5 1.8-.7 2.5 0zm-2.8 11h.6c2.3 0 4.5-.9 6.1-2.5 2.7-2.7 3.3-6.9 1.6-10.2.8-.2 1.7-.3 2.6-.3 6 0 10.8 4.7 11.1 10.6l-2.6-2.4c-.4-.4-1-.4-1.4 0L30.9 25.8c-3-1.7-5.1-4.5-5.6-7.8zm2.3 14l3.7-3.8c1.5.6 3.2 1 4.9 1 1.6 0 3.1-.3 4.6-.9.8.9 1.9 1.5 3.2 1.5 2.3 0 4.2-1.9 4.2-4.2s-1.9-4.2-4.2-4.2c-2.3 0-4.2 1.9-4.2 4.2 0 .3 0 .6.1.8-2.3.8-4.8.8-7 .1L44 15.3l8.7 8.2c.3.3.7.3 1.1.2.4-.2.6-.5.6-.9v-4.4h3.8v9.8c0 .2.1.4.2.6l2.4 3.2h-2.5c-.6 0-1 .4-1 1v17.1c-1.3.2-3.3.6-5.6 1.4V38.7c0-.6-.4-1-1-1H37.2c-.6 0-1 .4-1 1v6.7c-1.3-.7-4.9-2.7-5.5-3.2V33c0-.6-.4-1-1-1h-2.1zm14.2-6.4c0-1.2 1-2.2 2.2-2.2 1.2 0 2.2 1 2.2 2.2 0 1.2-1 2.2-2.2 2.2-1.2 0-2.2-1-2.2-2.2zM5.3 61.5l-2-17.1 13.2-1.6c1.3 11 1.3 10.9 2 17.1L5.3 61.5zm56.8-5.8c-2.6 2.4-8.4 4.2-12.3 6-2.8 1.3-8.2 3-13.9.6-.4-.2-9.2-3.7-15.8-5l-1.5-13.1c2.7-1.2 6.4-2.2 9.2-1.3 1.4.5 1.1.7 5.6 3.2 2.9 1.6 5.5 2.9 8.7 3.8 1.9.5 4.7 1.7 5.1 2.8.1.1.1.3 0 .6-2.3 2-5.4 2.3-8.4.3-2.6-1.7-5.8-2.3-5.9-2.3-.5-.1-1.1.3-1.2.8-.1.5.3 1.1.8 1.2 0 0 2.9.6 5.2 2 3.8 2.5 7.9 2.2 10.9-.5 3.1-1.4 9.7-3.7 13-2.7 1.3.4 1.7 2.5.5 3.6z"/></svg>