<svg xmlns="http://www.w3.org/2000/svg" xmlns:xlink="http://www.w3.org/1999/xlink" version="1.1" x="0px" y="0px" viewBox="0 -10 66 102.5" enable-background="new 0 0 66 66" xml:space="preserve" fill="#8A94A7" height="120px"><g><path d="M62.1,50.2c-0.9-0.3-1.8-0.4-2.9-0.3V34h3.5c0,0,0,0,0,0c0.6,0,1-0.4,1-1c0-0.3-0.1-0.6-0.3-0.7l-3.3-4.4l0-10.5   c0-0.3-0.1-0.5-0.3-0.7c-0.2-0.2-0.4-0.3-0.7-0.3h-5.8c-0.6,0-1,0.4-1,1v3.1l-3.3-3.1c0-0.4,0.1-0.9,0.1-1.4   C49.3,8.8,43.4,3,36.2,3c-1.3,0-2.6,0.2-3.8,0.6C29.1-0.3,23.2-0.6,19.6,3c-2.3,2.3-3.1,5.7-2.1,8.8L4.6,24.7   c-0.2,0.2-0.3,0.4-0.3,0.7l-0.1,4.5c0,0.6,0.4,1,1,1c0,0,0,0,0,0l4.5-0.1c0.4,0,0.8-0.3,0.9-0.7l0.9-3l2.4-0.3   c0.4-0.1,0.7-0.4,0.8-0.8l0.5-2l1.8-0.3c0.4-0.1,0.7-0.4,0.8-0.8l0.5-2l1.9-0.4c0.2,0,0.4-0.1,0.5-0.3l2.5-2.5   c0.5,4,2.8,7.6,6.2,9.6l-5,5c-0.3,0.3-0.4,0.7-0.2,1.1c0.2,0.4,0.5,0.6,0.9,0.6h3.5v7.1c-3.2-1.2-7.1-0.2-10.3,1.1l-0.1-0.5   c-0.1-0.5-0.6-0.9-1.1-0.9L2.1,42.5c-0.6,0.1-0.9,0.6-0.9,1.1l2.3,19.1c0.1,0.5,0.5,0.9,1,0.9c0,0,0.1,0,0.1,0l15.1-1.8   c0.6-0.1,0.9-0.6,0.9-1.1l-0.2-1.3c6.4,1.4,14.7,4.7,14.8,4.7c5,2.2,10.5,1.6,15.5-0.6c3.6-1.6,9.9-3.7,12.8-6.4   C65.7,55.1,65,51.1,62.1,50.2z M38.2,46.4v-6.7h11.5v12.4c0,0-0.5,0.2-0.5,0.2C48.4,49,42.2,48.2,38.2,46.4z M22.2,15.7l-2.8,2.8   L17.2,19c-0.4,0.1-0.7,0.4-0.8,0.7l-0.5,2l-1.8,0.3c-0.4,0.1-0.7,0.4-0.8,0.7l-0.5,2l-2.3,0.3c-0.4,0-0.7,0.3-0.8,0.7l-0.8,3   l-2.7,0.1l0.1-3l13-13c0.3-0.3,0.4-0.7,0.2-1.1c-1-2.5-0.4-5.4,1.5-7.3c2.5-2.5,6.6-2.6,9.4-0.1c-0.5,0.2-0.9,0.5-1.4,0.8   c-1.5-1-3.5-0.9-4.8,0.4c-1.5,1.5-1.5,3.8,0,5.3c1.5,1.5,3.9,1.5,5.3,0c1.1-1.1,1.4-2.7,0.8-4.2c0.4-0.3,0.9-0.5,1.3-0.7   c1.5,2.6,1.1,6-1,8.1c-2,2-4.9,2.4-7.3,1.5C22.9,15.4,22.5,15.5,22.2,15.7z M28.1,7c0.7,0.7,0.7,1.8,0,2.5c-0.7,0.7-1.8,0.7-2.5,0   c-0.7-0.7-0.7-1.8,0-2.5C26.3,6.3,27.4,6.3,28.1,7z M25.3,18c0.2,0,0.4,0,0.6,0h0c2.3,0,4.5-0.9,6.1-2.5c2.7-2.7,3.3-6.9,1.6-10.2   C34.4,5.1,35.3,5,36.2,5c6,0,10.8,4.7,11.1,10.6l-2.6-2.4c-0.4-0.4-1-0.4-1.4,0L30.9,25.8C27.9,24.1,25.8,21.3,25.3,18z M27.6,32   l3.7-3.8c1.5,0.6,3.2,1,4.9,1c1.6,0,3.1-0.3,4.6-0.9c0.8,0.9,1.9,1.5,3.2,1.5c2.3,0,4.2-1.9,4.2-4.2s-1.9-4.2-4.2-4.2   c-2.3,0-4.2,1.9-4.2,4.2c0,0.3,0,0.6,0.1,0.8c-2.3,0.8-4.8,0.8-7,0.1L44,15.3l8.7,8.2c0.3,0.3,0.7,0.3,1.1,0.2   c0.4-0.2,0.6-0.5,0.6-0.9v-4.4h3.8l0,9.8c0,0.2,0.1,0.4,0.2,0.6l2.4,3.2h-2.5c-0.6,0-1,0.4-1,1v17.1c-1.3,0.2-3.3,0.6-5.6,1.4V38.7   c0-0.6-0.4-1-1-1H37.2c-0.6,0-1,0.4-1,1v6.7c-1.3-0.7-4.9-2.7-5.5-3.2V33c0-0.6-0.4-1-1-1H27.6z M41.8,25.6c0-1.2,1-2.2,2.2-2.2   c1.2,0,2.2,1,2.2,2.2c0,1.2-1,2.2-2.2,2.2C42.8,27.8,41.8,26.8,41.8,25.6z M5.3,61.5l-2-17.1l13.2-1.6c1.3,11,1.3,10.9,2,17.1   L5.3,61.5z M62.1,55.7c-2.6,2.4-8.4,4.2-12.3,6c-2.8,1.3-8.2,3-13.9,0.6c-0.4-0.2-9.2-3.7-15.8-5l-1.5-13.1   c2.7-1.2,6.4-2.2,9.2-1.3c1.4,0.5,1.1,0.7,5.6,3.2c2.9,1.6,5.5,2.9,8.7,3.8c1.9,0.5,4.7,1.7,5.1,2.8c0.1,0.1,0.1,0.3,0,0.6   c-2.3,2-5.4,2.3-8.4,0.3c-2.6-1.7-5.8-2.3-5.9-2.3c-0.5-0.1-1.1,0.3-1.2,0.8c-0.1,0.5,0.3,1.1,0.8,1.2c0,0,2.9,0.6,5.2,2   c3.8,2.5,7.9,2.2,10.9-0.5c3.1-1.4,9.7-3.7,13-2.7C62.9,52.5,63.3,54.6,62.1,55.7z"/></g></svg>