<svg xmlns="http://www.w3.org/2000/svg" xmlns:xlink="http://www.w3.org/1999/xlink" version="1.1" x="0px" y="0px" viewBox="0 0 100 118" style="enable-background:new 0 0 100 100;" xml:space="preserve" fill="#8A94A7" height="120px"><path d="M35.3,62.7l4.9-9.8l3.7,1.9L43,39.7c0,0-0.1,0-0.1,0L30.3,48l3.7,1.9l-4.7,9.4C31.7,59.8,33.7,61.1,35.3,62.7z"/><path d="M53.7,40.8l4.7,9.3L54.7,52l12.7,8.4c0,0,0.1,0,0.1,0l0.9-15.1l-3.7,1.9l-4.7-9.3C58.1,39.2,56,40.3,53.7,40.8z"/><polygon points="52.8,66.7 39.6,74.3 52.8,82 52.8,77.8 58.7,77.8 58.7,70.9 52.8,70.9 "/><circle cx="50" cy="25.7" r="10.4"/><circle cx="25.7" cy="74.3" r="10.4"/><circle cx="74.3" cy="74.3" r="10.4"/></svg>