<svg xmlns="http://www.w3.org/2000/svg" viewBox="0 -3 100 125" fill="#8A94A7" stroke="#8A94A7" height="120"><path d="M18.1 28.3c0-3.6-2.9-6.5-6.5-6.5s-6.5 2.9-6.5 6.5 2.9 6.5 6.5 6.5c3.5 0 6.5-2.9 6.5-6.5m0 43.8c0-3.6-2.9-6.5-6.5-6.5s-6.5 2.9-6.5 6.5 2.9 6.5 6.5 6.5c3.5 0 6.5-2.9 6.5-6.5m57.2-37.4v9.4h-6.8c-10.5 0-12.9-3.6-16.4-8.9-3.6-5.5-8.6-13-22.5-13H18.3c1.5 1.6 2.4 3.7 2.4 6.1s-.9 4.5-2.4 6.1h11.2c7.4 0 9.2 2.7 12.4 7.5 1.7 2.6 3.8 5.7 6.9 8.3-3.1 2.6-5.1 5.7-6.9 8.3-3.2 4.9-5 7.5-12.4 7.5H18.3c1.5 1.6 2.4 3.7 2.4 6.1s-.9 4.5-2.4 6.1h11.2c14 0 18.9-7.5 22.5-13 3.6-5.4 5.9-8.9 16.3-8.9h6.9v9.4L95 50.2 75.3 34.7z"/></svg>