<svg xmlns="http://www.w3.org/2000/svg" xmlns:xlink="http://www.w3.org/1999/xlink" version="1.1" x="0px" y="0px" viewBox="0 -3 100 125" style="enable-background:new 0 0 100 100;" xml:space="preserve" fill="#8A94A7" stroke="#8A94A7" height="120px"><g><path d="M18.1,28.3c0-3.6-2.9-6.5-6.5-6.5c-3.6,0-6.5,2.9-6.5,6.5c0,3.6,2.9,6.5,6.5,6.5C15.1,34.8,18.1,31.9,18.1,28.3 M18.1,72.1   c0-3.6-2.9-6.5-6.5-6.5c-3.6,0-6.5,2.9-6.5,6.5c0,3.6,2.9,6.5,6.5,6.5C15.1,78.6,18.1,75.7,18.1,72.1 M75.3,34.7v9.4l-6.8,0   c-10.5,0-12.9-3.6-16.4-8.9c-3.6-5.5-8.6-13-22.5-13H18.3c1.5,1.6,2.4,3.7,2.4,6.1s-0.9,4.5-2.4,6.1h11.2c7.4,0,9.2,2.7,12.4,7.5   c1.7,2.6,3.8,5.7,6.9,8.3c-3.1,2.6-5.1,5.7-6.9,8.3c-3.2,4.9-5,7.5-12.4,7.5H18.3c1.5,1.6,2.4,3.7,2.4,6.1s-0.9,4.5-2.4,6.1h11.2   c14,0,18.9-7.5,22.5-13c3.6-5.4,5.9-8.9,16.3-8.9h6.9v9.4L95,50.2L75.3,34.7z"/></g></svg>